Coordinates
version=1
nRows=29
nColumns=24
inDegrees=yes

Units are S.I. units (second, meters, Newtons, ...)
If the header above contains a line with 'inDegrees', this indicates whether rotational values are in degrees (yes) or radians (no).

endheader
time	pelvis_tilt	pelvis_list	pelvis_rotation	pelvis_tx	pelvis_ty	pelvis_tz	lumbar_extension	lumbar_bending	lumbar_rotation	arm_flex_r	arm_add_r	arm_rot_r	elbow_flex_r	pro_sup_r	wrist_flex_r	wrist_dev_r	arm_flex_l	arm_add_l	arm_rot_l	elbow_flex_l	pro_sup_l	wrist_flex_l	wrist_dev_l
      7.67600000	     -8.86605701	     -0.94685721	      0.38163459	      0.97139454	      0.85502942	      0.10028108	     -5.73783642	     -2.68949752	     -1.21325745	      6.03397276	     -6.73042092	     12.01473345	     24.73325092	     83.32617269	     -8.91572378	    -24.99999983	      5.56455759	     -5.13201776	     -6.94386688	     40.07791470	     41.87174273	    -30.93863843	    -24.99999983
      7.68000000	     -8.81295883	     -0.95704811	      0.39957698	      0.97214225	      0.85504360	      0.10043798	     -5.67998947	     -2.70229871	     -1.20021694	      5.94846754	     -6.70141948	     12.08336142	     24.62551878	     83.34140261	     -8.90569609	    -24.99999983	      5.76753401	     -5.08393597	     -6.98009818	     39.17914838	     41.90486221	    -31.03292376	    -24.99999983
      7.68400000	     -8.80155695	     -0.94863659	      0.37528090	      0.97234471	      0.85505257	      0.10019663	     -5.66763088	     -2.69042311	     -1.22268099	      5.95204777	     -6.73598841	     12.10990650	     24.61979295	     83.34949088	     -8.90883326	    -24.99999983	      5.93895754	     -5.01798019	     -6.94947400	     38.44603139	     42.02063116	    -31.11553648	    -24.99999983
      7.68800000	     -8.81488109	     -0.95314588	      0.28942801	      0.97239958	      0.85497822	      0.10028931	     -5.68248847	     -2.68663909	     -1.30831927	      6.01455503	     -6.70678083	     12.10188324	     24.68132717	     83.34923142	     -8.91350352	    -24.99999983	      5.88393557	     -5.03965763	     -6.97024918	     38.22024378	     42.03058057	    -31.13554222	    -24.99999983
      7.69200000	     -8.76038966	     -0.95760078	      0.31139963	      0.97314067	      0.85499545	      0.10028457	     -5.62330622	     -2.69349792	     -1.28972879	      5.91874977	     -6.69799044	     12.15669781	     24.58480024	     83.36319522	     -8.90553639	    -24.99999983	      6.12552104	     -4.92863859	     -7.11280196	     37.26902732	     42.09282304	    -31.24320136	    -24.99999983
      7.69600000	     -8.78122192	     -0.95111120	      0.22989298	      0.97308466	      0.85495025	      0.10022897	     -5.64600922	     -2.67865513	     -1.36867377	      5.97819632	     -6.68306863	     12.14879293	     24.63946303	     83.36334720	     -8.90886693	    -24.99999983	      6.06201818	     -4.93416860	     -7.11485289	     37.08647043	     42.10547807	    -31.25687263	    -24.99999983
      7.70000000	     -8.72766115	     -0.95685928	      0.24778272	      0.97382666	      0.85496066	      0.10017966	     -5.58780481	     -2.68560344	     -1.35400462	      5.89295780	     -6.69651593	     12.22118925	     24.56599684	     83.38490728	     -8.89397013	    -24.99999983	      6.31887774	     -4.83710164	     -7.22501776	     36.09700643	     42.19058115	    -31.36362781	    -24.99999983
      7.70400000	     -8.74194119	     -0.95345568	      0.16055678	      0.97377793	      0.85488697	      0.10008197	     -5.60416798	     -2.67320174	     -1.43898886	      5.96392794	     -6.68576136	     12.21132468	     24.62637727	     83.38436397	     -8.89783991	    -24.99999983	      6.25927301	     -4.83597291	     -7.21840882	     35.91172094	     42.21006717	    -31.37791149	    -24.99999983
      7.70800000	     -8.73939488	     -0.95903571	      0.08108921	      0.97398756	      0.85487353	      0.10024741	     -5.60188839	     -2.67161888	     -1.51966702	      6.00032556	     -6.64849578	     12.22698324	     24.67096133	     83.39109971	     -8.89480057	    -24.99999983	      6.24680062	     -4.85379389	     -7.26084628	     35.53553182	     42.21801831	    -31.41413230	    -24.99999983
      7.71200000	     -8.68218718	     -0.94886526	      0.15153800	      0.97469390	      0.85489910	      0.09983671	     -5.53931854	     -2.66657069	     -1.44911069	      5.87833987	     -6.72114444	     12.32063799	     24.53123703	     83.41714548	     -8.86933733	    -24.99999983	      6.57515512	     -4.67894800	     -7.33488557	     34.49374103	     42.30820680	    -31.55282644	    -24.99999983
      7.71600000	     -8.70942216	     -0.94955807	      0.08528028	      0.97458225	      0.85491807	      0.09988942	     -5.56819621	     -2.66097036	     -1.51401959	      5.93321454	     -6.70000947	     12.31664505	     24.58710632	     83.41773085	     -8.87129899	    -24.99999983	      6.51726945	     -4.69239393	     -7.32731242	     34.36153712	     42.32292954	    -31.56587267	    -24.99999983
      7.72000000	     -8.68223255	     -0.96114901	      0.08324328	      0.97484746	      0.85491474	      0.09995155	     -5.53965686	     -2.67227185	     -1.51884345	      5.90582166	     -6.69743569	     12.39926092	     24.56409221	     83.44115771	     -8.84912328	    -24.99999983	      6.75835392	     -4.65612790	     -7.34608638	     33.52665169	     42.43721262	    -31.69361579	    -24.99999983
      7.72400000	     -8.70402934	     -0.95652183	      0.01449996	      0.97474267	      0.85491375	      0.09981109	     -5.56317672	     -2.66038672	     -1.58476337	      5.97150130	     -6.69494019	     12.38878182	     24.61036309	     83.43942344	     -8.85235098	    -24.99999983	      6.69776900	     -4.64847350	     -7.33201452	     33.39295302	     42.45413132	    -31.71063323	    -24.99999983
      7.72800000	     -8.70467595	     -0.96052395	     -0.05864418	      0.97480129	      0.85481492	      0.09989856	     -5.56522881	     -2.65758695	     -1.65830533	      6.02277469	     -6.67692868	     12.39885324	     24.65457742	     83.44379978	     -8.84951459	    -24.99999983	      6.67196139	     -4.66559335	     -7.34784785	     33.12858929	     42.46473981	    -31.74838000	    -24.99999983
      7.73200000	     -8.66883607	     -0.96255397	     -0.01687573	      0.97523118	      0.85486081	      0.09976314	     -5.52591336	     -2.66298271	     -1.61787491	      5.95216064	     -6.71081359	     12.50601166	     24.55888099	     83.47096393	     -8.81464807	    -24.99999983	      6.91728869	     -4.56605961	     -7.38529448	     32.30983974	     42.53445533	    -31.91084481	    -24.99999983
      7.73600000	     -8.69413717	     -0.96196882	     -0.08649826	      0.97505387	      0.85488061	      0.09974675	     -5.55326130	     -2.65559915	     -1.68565911	      6.01886409	     -6.69975745	     12.50118511	     24.61291041	     83.47084836	     -8.81595192	    -24.99999983	      6.85377535	     -4.57741401	     -7.36991882	     32.19654449	     42.55186350	    -31.93009674	    -24.99999983
      7.74000000	     -8.72123414	     -0.96665883	     -0.13203972	      0.97496163	      0.85486817	      0.09985147	     -5.58170719	     -2.65630483	     -1.73072032	      6.05477473	     -6.67486896	     12.51000868	     24.64638627	     83.47424625	     -8.81348276	    -24.99999983	      6.80739679	     -4.59614311	     -7.37204651	     32.08710597	     42.55848729	    -31.94949840	    -24.99999983
      7.74400000	     -8.72425040	     -0.97800465	     -0.20559245	      0.97499115	      0.85477612	      0.09999962	     -5.58626010	     -2.66101020	     -1.80564288	      6.11622168	     -6.64566343	     12.53284017	     24.69136143	     83.48265941	     -8.80598638	    -24.99999983	      6.76303525	     -4.62805581	     -7.38685833	     31.87728761	     42.56309596	    -31.98933799	    -24.99999983
      7.74800000	     -8.74767736	     -0.99005095	     -0.20002762	      0.97492407	      0.85470806	      0.10006684	     -5.61026573	     -2.67389334	     -1.80058332	      6.11850801	     -6.64327827	     12.53620729	     24.69136348	     83.48358769	     -8.80494487	    -24.99999983	      6.73935946	     -4.62052172	     -7.38802432	     31.84916272	     42.56197338	    -31.99364021	    -24.99999983
      7.75200000	     -8.69677023	     -0.99734945	     -0.21848836	      0.97542458	      0.85481707	      0.10016151	     -5.55631415	     -2.67941474	     -1.82274484	      6.09242146	     -6.63018503	     12.72166297	     24.59836056	     83.53419889	     -8.74294509	    -24.99999983	      6.88696736	     -4.58706023	     -7.46180976	     31.07275008	     42.56591780	    -32.18641331	    -24.99999983
      7.75600000	     -8.71752830	     -1.00890672	     -0.21657085	      0.97532534	      0.85475827	      0.10020338	     -5.57783996	     -2.69134820	     -1.82120931	      6.10216314	     -6.63223727	     12.72139492	     24.60273682	     83.53413681	     -8.74289063	    -24.99999983	      6.85955384	     -4.57915895	     -7.45918451	     31.05385367	     42.56659709	    -32.18945389	    -24.99999983
      7.76000000	     -8.73181551	     -1.00123754	     -0.29870531	      0.97514501	      0.85481630	      0.10005879	     -5.59429527	     -2.67516111	     -1.90044717	      6.17676577	     -6.61921389	     12.72395305	     24.65907768	     83.53584428	     -8.74096706	    -24.99999983	      6.78314938	     -4.57958188	     -7.45095795	     30.92795943	     42.57110692	    -32.21460855	    -24.99999983
      7.76400000	     -8.75031608	     -1.01351821	     -0.29118069	      0.97502661	      0.85479718	      0.10013420	     -5.61335404	     -2.68851889	     -1.89374771	      6.18527294	     -6.62337289	     12.72508841	     24.66201539	     83.53628504	     -8.74037363	    -24.99999983	      6.75724288	     -4.57664846	     -7.45208784	     30.90514488	     42.57029791	    -32.21852006	    -24.99999983
      7.76800000	     -8.75682618	     -1.01238958	     -0.36532128	      0.97494905	      0.85486928	      0.10012827	     -5.62124189	     -2.68011754	     -1.96693299	      6.24552498	     -6.60383360	     12.74501494	     24.71303031	     83.54322687	     -8.73238614	    -24.99999983	      6.69706274	     -4.58143231	     -7.46666789	     30.72653032	     42.56525696	    -32.25817141	    -24.99999983
      7.77200000	     -8.77348264	     -1.02223673	     -0.35503145	      0.97479203	      0.85484979	      0.10017132	     -5.63861866	     -2.69120561	     -1.95713248	      6.24958520	     -6.60626596	     12.74695475	     24.71336712	     83.54380523	     -8.73158876	    -24.99999983	      6.67532949	     -4.57662367	     -7.46861530	     30.70766553	     42.56405485	    -32.26174102	    -24.99999983
      7.77600000	     -8.74873696	     -1.01402510	     -0.36083056	      0.97503342	      0.85491649	      0.09988376	     -5.61235852	     -2.68108150	     -1.96152438	      6.23387271	     -6.66870787	     12.92106554	     24.68132090	     83.58842111	     -8.66737765	    -24.99999983	      6.79120164	     -4.47847750	     -7.57987093	     30.15665238	     42.56624208	    -32.49087646	    -24.99999983
      7.78000000	     -8.76434553	     -1.02403090	     -0.35267777	      0.97484256	      0.85491683	      0.09990946	     -5.62881032	     -2.69204045	     -1.95379970	      6.24209633	     -6.66951060	     12.92106302	     24.68480051	     83.58828778	     -8.66730532	    -24.99999983	      6.76681549	     -4.47208736	     -7.57893502	     30.14566231	     42.56665368	    -32.49334637	    -24.99999983
      7.78400000	     -8.78870958	     -1.01955137	     -0.39162705	      0.97462282	      0.85501550	      0.09983245	     -5.65461157	     -2.68359056	     -1.99041302	      6.29149108	     -6.66279683	     12.92086153	     24.72268787	     83.58750045	     -8.66653615	    -24.99999983	      6.70677002	     -4.45901529	     -7.57250860	     30.10643920	     42.57613580	    -32.51382779	    -24.99999983
      7.78800000	     -8.80081565	     -1.03111267	     -0.38091953	      0.97441636	      0.85501663	      0.09984363	     -5.66757951	     -2.69627992	     -1.98038211	      6.30253019	     -6.66874091	     12.92010892	     24.72656222	     83.58742147	     -8.66649375	    -24.99999983	      6.68215862	     -4.45724285	     -7.57355387	     30.09559423	     42.57621945	    -32.51657603	    -24.99999983
